<svg xmlns="http://www.w3.org/2000/svg" width="820" height="470" viewBox="0 0 820 470" font-family="ui-sans-serif, system-ui, sans-serif">
<rect width="820" height="470" rx="14" fill="#10131a"/>
<text x="40" y="44" font-size="19" font-weight="600" fill="#e6e8ee">Min-heap: the same POT, stored level by level in an array</text>
<line x1="410" y1="90" x2="230" y2="180" stroke="#323a50" stroke-width="2"/>
<line x1="410" y1="90" x2="590" y2="180" stroke="#323a50" stroke-width="2"/>
<line x1="230" y1="180" x2="140" y2="270" stroke="#323a50" stroke-width="2"/>
<line x1="230" y1="180" x2="320" y2="270" stroke="#323a50" stroke-width="2"/>
<line x1="590" y1="180" x2="500" y2="270" stroke="#323a50" stroke-width="2"/>
<line x1="590" y1="180" x2="680" y2="270" stroke="#323a50" stroke-width="2"/>
<circle cx="410" cy="90" r="25" fill="#161a23" stroke="#8b9cff" stroke-width="2.5"/>
<text x="410" y="96" font-size="18" font-weight="600" text-anchor="middle" fill="#e6e8ee">1</text>
<text x="440" y="70" font-size="12" font-family="ui-monospace, monospace" fill="#6b7385">[0]</text>
<circle cx="230" cy="180" r="25" fill="#161a23" stroke="#fcd34d" stroke-width="2.5"/>
<text x="230" y="186" font-size="18" font-weight="600" text-anchor="middle" fill="#e6e8ee">3</text>
<text x="260" y="160" font-size="12" font-family="ui-monospace, monospace" fill="#6b7385">[1]</text>
<circle cx="590" cy="180" r="25" fill="#161a23" stroke="#8b9cff" stroke-width="2.5"/>
<text x="590" y="186" font-size="18" font-weight="600" text-anchor="middle" fill="#e6e8ee">2</text>
<text x="620" y="160" font-size="12" font-family="ui-monospace, monospace" fill="#6b7385">[2]</text>
<circle cx="140" cy="270" r="25" fill="#161a23" stroke="#5eead4" stroke-width="2.5"/>
<text x="140" y="276" font-size="18" font-weight="600" text-anchor="middle" fill="#e6e8ee">7</text>
<text x="170" y="250" font-size="12" font-family="ui-monospace, monospace" fill="#6b7385">[3]</text>
<circle cx="320" cy="270" r="25" fill="#161a23" stroke="#5eead4" stroke-width="2.5"/>
<text x="320" y="276" font-size="18" font-weight="600" text-anchor="middle" fill="#e6e8ee">6</text>
<text x="350" y="250" font-size="12" font-family="ui-monospace, monospace" fill="#6b7385">[4]</text>
<circle cx="500" cy="270" r="25" fill="#161a23" stroke="#8b9cff" stroke-width="2.5"/>
<text x="500" y="276" font-size="18" font-weight="600" text-anchor="middle" fill="#e6e8ee">9</text>
<text x="530" y="250" font-size="12" font-family="ui-monospace, monospace" fill="#6b7385">[5]</text>
<circle cx="680" cy="270" r="25" fill="#161a23" stroke="#8b9cff" stroke-width="2.5"/>
<text x="680" y="276" font-size="18" font-weight="600" text-anchor="middle" fill="#e6e8ee">8</text>
<text x="710" y="250" font-size="12" font-family="ui-monospace, monospace" fill="#6b7385">[6]</text>
<text x="134" y="382.0" font-size="14" text-anchor="end" font-family="ui-monospace, monospace" fill="#a0a8b8">elem</text>
<rect x="153" y="350" width="68" height="52" rx="7" fill="#161a23" stroke="#323a50" stroke-width="1.5"/>
<text x="187.0" y="383.0" font-size="18" font-weight="600" text-anchor="middle" fill="#e6e8ee">1</text>
<text x="187.0" y="422" font-size="13" text-anchor="middle" font-family="ui-monospace, monospace" fill="#6b7385">0</text>
<rect x="227" y="350" width="68" height="52" rx="7" fill="#161a23" stroke="#fcd34d" stroke-width="2.5"/>
<text x="261.0" y="383.0" font-size="18" font-weight="600" text-anchor="middle" fill="#e6e8ee">3</text>
<text x="261.0" y="422" font-size="13" text-anchor="middle" font-family="ui-monospace, monospace" fill="#6b7385">1</text>
<rect x="301" y="350" width="68" height="52" rx="7" fill="#161a23" stroke="#323a50" stroke-width="1.5"/>
<text x="335.0" y="383.0" font-size="18" font-weight="600" text-anchor="middle" fill="#e6e8ee">2</text>
<text x="335.0" y="422" font-size="13" text-anchor="middle" font-family="ui-monospace, monospace" fill="#6b7385">2</text>
<rect x="375" y="350" width="68" height="52" rx="7" fill="#161a23" stroke="#5eead4" stroke-width="2.5"/>
<text x="409.0" y="383.0" font-size="18" font-weight="600" text-anchor="middle" fill="#e6e8ee">7</text>
<text x="409.0" y="422" font-size="13" text-anchor="middle" font-family="ui-monospace, monospace" fill="#6b7385">3</text>
<rect x="449" y="350" width="68" height="52" rx="7" fill="#161a23" stroke="#5eead4" stroke-width="2.5"/>
<text x="483.0" y="383.0" font-size="18" font-weight="600" text-anchor="middle" fill="#e6e8ee">6</text>
<text x="483.0" y="422" font-size="13" text-anchor="middle" font-family="ui-monospace, monospace" fill="#6b7385">4</text>
<rect x="523" y="350" width="68" height="52" rx="7" fill="#161a23" stroke="#323a50" stroke-width="1.5"/>
<text x="557.0" y="383.0" font-size="18" font-weight="600" text-anchor="middle" fill="#e6e8ee">9</text>
<text x="557.0" y="422" font-size="13" text-anchor="middle" font-family="ui-monospace, monospace" fill="#6b7385">5</text>
<rect x="597" y="350" width="68" height="52" rx="7" fill="#161a23" stroke="#323a50" stroke-width="1.5"/>
<text x="631.0" y="383.0" font-size="18" font-weight="600" text-anchor="middle" fill="#e6e8ee">8</text>
<text x="631.0" y="422" font-size="13" text-anchor="middle" font-family="ui-monospace, monospace" fill="#6b7385">6</text>
<defs><marker id="ah" viewBox="0 0 10 10" refX="8" refY="5" markerWidth="7" markerHeight="7" orient="auto"><path d="M1 1 L9 5 L1 9" fill="none" stroke="#5eead4" stroke-width="1.8" stroke-linecap="round" stroke-linejoin="round"/></marker></defs>
<path d="M261.0 346 C 261.0 310, 409.0 310, 409.0 344" fill="none" stroke="#5eead4" stroke-width="2" marker-end="url(#ah)"/>
<path d="M261.0 346 C 261.0 310, 483.0 310, 483.0 344" fill="none" stroke="#5eead4" stroke-width="2" marker-end="url(#ah)"/>
<text x="702" y="382.0" font-size="14" font-family="ui-monospace, monospace" fill="#a0a8b8">lastNdx = 6</text>
<text x="40" y="448" font-size="15" fill="#e6e8ee">Node at index <tspan fill="#fcd34d" font-weight="600">i = 1</tspan> → children at <tspan fill="#5eead4" font-weight="600">2i+1 = 3</tspan> and <tspan fill="#5eead4" font-weight="600">2i+2 = 4</tspan> · parent of i is <tspan font-family="ui-monospace, monospace">(i−1)/2</tspan></text>
</svg>